<svg xmlns="http://www.w3.org/2000/svg" version="1.1" xmlns:xlink="http://www.w3.org/1999/xlink" xmlns:svgjs="http://svgjs.dev/svgjs" width="1440" height="560" preserveAspectRatio="none" viewBox="0 0 1440 560">
    <g mask="url(&quot;#SvgjsMask1050&quot;)" fill="none">
        <path d="M976.54 285.65L1020.35 285.65L1020.35 299.83L976.54 299.83z" fill="rgba(43, 84, 228, 1)"></path>
        <path d="M1169.54 453.37a11.94 11.94 0 1 0-23.43-4.62z" stroke="rgba(57, 119, 255, 1)"></path>
        <path d="M232.09 331.25a49.44 49.44 0 1 0 56.5-81.15z" stroke="rgba(37, 87, 224, 1)"></path>
        <path d="M639.83 406.49L682.35 406.49L682.35 407.72L639.83 407.72z" fill="rgba(57, 119, 255, 1)"></path>
        <path d="M986.2 193.51a40.26 40.26 0 1 0 79.36 13.59z" stroke="rgba(43, 84, 228, 1)"></path>
        <path d="M1318.86 524.85L1344.19 524.85L1344.19 550.18L1318.86 550.18z" fill="rgba(37, 87, 224, 1)"></path>
        <path d="M1376.49 456.62 a12.64 12.64 0 1 0 25.28 0 a12.64 12.64 0 1 0 -25.28 0z" stroke="rgba(43, 84, 228, 1)"></path>
        <path d="M1055.78 61.09L1086.94 61.09L1086.94 92.25L1055.78 92.25z" stroke="rgba(43, 84, 228, 1)"></path>
        <path d="M157.81 409.81L173.36 409.81L173.36 425.36L157.81 425.36z" stroke="rgba(37, 87, 224, 1)"></path>
        <path d="M525.54 453.58L561.49 453.58L561.49 489.53L525.54 489.53z" stroke="rgba(43, 84, 228, 1)"></path>
        <path d="M550.03 497.75L601.99 497.75L601.99 549.71L550.03 549.71z" fill="rgba(37, 87, 224, 1)"></path>
        <path d="M704.48 476.31a29.91 29.91 0 1 0-32.28 50.36z" fill="rgba(57, 119, 255, 1)"></path>
        <path d="M560.85 203.35 a34.7 34.7 0 1 0 69.4 0 a34.7 34.7 0 1 0 -69.4 0z" stroke="rgba(37, 87, 224, 1)"></path>
        <path d="M264.88 485.35L316.63 485.35L316.63 537.1L264.88 537.1z" stroke="rgba(57, 119, 255, 1)"></path>
        <path d="M499.2 217.2L543 217.2L543 261L499.2 261z" stroke="rgba(37, 87, 224, 1)"></path>
        <path d="M266.02 406.05L312.24 406.05L312.24 452.27L266.02 452.27z" fill="rgba(43, 84, 228, 1)"></path>
        <path d="M526.4 212.05 a22.46 22.46 0 1 0 44.92 0 a22.46 22.46 0 1 0 -44.92 0z" stroke="rgba(43, 84, 228, 1)"></path>
        <path d="M1429.77 38.86a39.23 39.23 0 1 0-45.98-63.58z" stroke="rgba(43, 84, 228, 1)"></path>
        <path d="M711.84 192.96 a39.02 39.02 0 1 0 78.04 0 a39.02 39.02 0 1 0 -78.04 0z" stroke="rgba(43, 84, 228, 1)"></path>
        <path d="M620.94 29.99a36.99 36.99 0 1 0 61.06-41.77z" stroke="rgba(57, 119, 255, 1)"></path>
        <path d="M883.27 531.98a10.48 10.48 0 1 0 20.82-2.39z" stroke="rgba(43, 84, 228, 1)"></path>
        <path d="M1065.26 466.56 a26.05 26.05 0 1 0 52.1 0 a26.05 26.05 0 1 0 -52.1 0z" fill="rgba(57, 119, 255, 1)"></path>
        <path d="M307.27 423.67a30.44 30.44 0 1 0 5.11-60.67z" fill="rgba(37, 87, 224, 1)"></path>
        <path d="M514.63 413.06L558.97 413.06L558.97 432.65L514.63 432.65z" fill="rgba(37, 87, 224, 1)"></path>
        <path d="M805.19 388.13L830.2 388.13L830.2 439.09L805.19 439.09z" fill="rgba(57, 119, 255, 1)"></path>
        <path d="M648.94 299.17L686.34 299.17L686.34 336.57L648.94 336.57z" stroke="rgba(57, 119, 255, 1)"></path>
        <path d="M1275.71 163.48L1302.84 163.48L1302.84 206.84L1275.71 206.84z" fill="rgba(57, 119, 255, 1)"></path>
        <path d="M84.69 197.18a16.3 16.3 0 1 0 28.02-16.67z" stroke="rgba(37, 87, 224, 1)"></path>
        <path d="M616.65 486.43L660.94 486.43L660.94 513.73L616.65 513.73z" stroke="rgba(37, 87, 224, 1)"></path>
        <path d="M441.34 202.43a11.98 11.98 0 1 0-9.29 22.08z" stroke="rgba(37, 87, 224, 1)"></path>
        <path d="M917.88 444.53L959.38 444.53L959.38 486.03L917.88 486.03z" fill="rgba(57, 119, 255, 1)"></path>
        <path d="M75.04 78.28L125.87 78.28L125.87 94.46L75.04 94.46z" stroke="rgba(37, 87, 224, 1)"></path>
        <path d="M810.73 461.05a24.89 24.89 0 1 0 38.46 31.6z" stroke="rgba(37, 87, 224, 1)"></path>
    </g>
    <defs>
        <mask id="SvgjsMask1050">
            <rect width="1440" height="560" fill="#ffffff"></rect>
        </mask>
    </defs>
</svg>